<svg width="41" height="40" viewBox="0 0 41 40" fill="none" xmlns="http://www.w3.org/2000/svg">
<path d="M36.0556 36H4.94444V14H36.0556V36ZM36.0556 4H33.8333V0H29.3889V4H11.6111V0H7.16667V4H4.94444C2.47778 4 0.5 5.8 0.5 8V36C0.5 37.0609 0.968252 38.0783 1.80175 38.8284C2.63524 39.5786 3.7657 40 4.94444 40H36.0556C37.2343 40 38.3648 39.5786 39.1983 38.8284C40.0317 38.0783 40.5 37.0609 40.5 36V8C40.5 6.93913 40.0317 5.92172 39.1983 5.17157C38.3648 4.42143 37.2343 4 36.0556 4ZM30.5667 20.12L28.2111 18L17.3667 27.76L12.6556 23.52L10.3 25.64L17.3667 32L30.5667 20.12Z" fill="white"/>
</svg>
