<svg width="43" height="42" viewBox="0 0 43 42" fill="none" xmlns="http://www.w3.org/2000/svg">
<path d="M23.5832 14.75H19.4165V10.5833H23.5832V14.75ZM23.5832 31.4166H19.4165V18.9166H23.5832V31.4166ZM21.4998 0.166626C18.764 0.166626 16.0549 0.705496 13.5273 1.75247C10.9996 2.79944 8.703 4.33401 6.76845 6.26857C2.86144 10.1756 0.666504 15.4746 0.666504 21C0.666504 26.5253 2.86144 31.8243 6.76845 35.7314C8.703 37.6659 10.9996 39.2005 13.5273 40.2475C16.0549 41.2944 18.764 41.8333 21.4998 41.8333C27.0252 41.8333 32.3242 39.6384 36.2312 35.7314C40.1382 31.8243 42.3332 26.5253 42.3332 21C42.3332 18.2641 41.7943 15.555 40.7473 13.0274C39.7004 10.4998 38.1658 8.20312 36.2312 6.26857C34.2967 4.33401 32 2.79944 29.4724 1.75247C26.9448 0.705496 24.2357 0.166626 21.4998 0.166626Z" fill="white"/>
</svg>
