<svg width="25" height="25" viewBox="0 0 25 25" fill="none" xmlns="http://www.w3.org/2000/svg">
<path d="M18.0556 18.75V15H8.33333V10H18.0556V6.25L25 12.5L18.0556 18.75ZM15.2778 0C16.0145 0 16.721 0.263392 17.242 0.732233C17.7629 1.20107 18.0556 1.83696 18.0556 2.5V5H15.2778V2.5H2.77778V22.5H15.2778V20H18.0556V22.5C18.0556 23.163 17.7629 23.7989 17.242 24.2678C16.721 24.7366 16.0145 25 15.2778 25H2.77778C2.04107 25 1.33453 24.7366 0.813592 24.2678C0.292658 23.7989 0 23.163 0 22.5V2.5C0 1.83696 0.292658 1.20107 0.813592 0.732233C1.33453 0.263392 2.04107 0 2.77778 0H15.2778Z" fill="white"/>
</svg>
