<svg width="41" height="40" viewBox="0 0 41 40" fill="none" xmlns="http://www.w3.org/2000/svg">
<path d="M0.5 40V10C0.5 9.46957 0.710714 8.96086 1.08579 8.58579C1.46086 8.21071 1.96957 8 2.5 8H10.5V0H30.5V8H38.5C39.0304 8 39.5391 8.21071 39.9142 8.58579C40.2893 8.96086 40.5 9.46957 40.5 10V40H24.5V30H16.5V40H0.5ZM14.5 4V16H18.5V12H22.5V16H26.5V4H22.5V8H18.5V4H14.5ZM4.5 36H12.5V30H4.5V36ZM4.5 26H12.5V20H4.5V26ZM28.5 36H36.5V30H28.5V36ZM28.5 26H36.5V20H28.5V26ZM16.5 26H24.5V20H16.5V26Z" fill="white"/>
</svg>
