<svg width="41" height="40" viewBox="0 0 41 40" fill="none" xmlns="http://www.w3.org/2000/svg">
<path d="M34.5 12C35.62 12 36.5 12.86 36.5 14C36.5 14.5304 36.2893 15.0391 35.9142 15.4142C35.5391 15.7893 35.0304 16 34.5 16C33.36 16 32.5 15.1 32.5 14C32.5 12.86 33.36 12 34.5 12ZM0.5 0V18C0.5 23.92 4.88 29 10.78 29.82C12.02 35.84 17.34 40 23.5 40C25.2072 40 26.8977 39.6637 28.4749 39.0104C30.0521 38.3571 31.4852 37.3995 32.6924 36.1924C33.8995 34.9852 34.8571 33.5521 35.5104 31.9749C36.1637 30.3977 36.5 28.7072 36.5 27V19.62C38.82 18.78 40.5 16.58 40.5 14C40.5 12.4087 39.8679 10.8826 38.7426 9.75736C37.6174 8.63214 36.0913 8 34.5 8C32.9087 8 31.3826 8.63214 30.2574 9.75736C29.1321 10.8826 28.5 12.4087 28.5 14C28.5 16.58 30.18 18.8 32.5 19.62V26.82C32.5 31.82 28.5 35.82 23.5 35.82C19.5 35.82 16.14 33.4 14.94 29.8C20.5 28.6 24.5 23.6 24.5 18V0H16.5V6H20.5V18C20.5 20.1217 19.6571 22.1566 18.1569 23.6569C16.6566 25.1571 14.6217 26 12.5 26C10.3783 26 8.34344 25.1571 6.84315 23.6569C5.34285 22.1566 4.5 20.1217 4.5 18V6H8.5V0H0.5Z" fill="white"/>
</svg>
